<?xml version="1.0" standalone="no"?>
<!DOCTYPE svg PUBLIC "-//W3C//DTD SVG 20010904//EN"
 "http://www.w3.org/TR/2001/REC-SVG-20010904/DTD/svg10.dtd">
<svg version="1.0" xmlns="http://www.w3.org/2000/svg"
 width="402.000000pt" height="402.000000pt" viewBox="0 0 402.000000 402.000000"
 preserveAspectRatio="xMidYMid meet">
<metadata>
Created by potrace 1.14, written by Peter Selinger 2001-2017
</metadata>
<g transform="translate(0.000000,402.000000) scale(0.100000,-0.100000)"
fill="#000000" stroke="none">
<path d="M0 2010 l0 -2010 2010 0 2010 0 0 2010 0 2010 -2010 0 -2010 0 0
-2010z m2250 1110 l0 -90 -155 0 -155 0 0 -425 0 -425 -105 0 -105 0 0 425 0
425 -150 0 -150 0 0 90 0 90 410 0 410 0 0 -90z m332 -272 c4 -406 5 -411 74
-464 35 -27 43 -29 130 -29 104 0 132 12 169 76 19 32 20 55 23 407 l3 372
105 0 105 0 -3 -392 c-4 -385 -4 -394 -27 -452 -13 -32 -38 -75 -56 -95 -78
-85 -231 -125 -406 -103 -113 14 -183 47 -243 113 -77 85 -79 101 -84 542 l-4
387 105 0 105 0 4 -362z m-1622 -68 l0 -420 255 0 255 0 0 -90 0 -90 -360 0
-360 0 0 510 0 510 105 0 105 0 0 -420z m2683 -1290 c114 -35 193 -127 211
-246 l6 -41 -102 -6 c-55 -4 -104 -4 -109 -2 -4 3 -10 19 -14 35 -4 16 -19 43
-34 59 -95 101 -362 33 -301 -77 23 -39 62 -58 210 -97 220 -58 306 -110 353
-215 29 -64 29 -188 -1 -250 -54 -112 -143 -171 -290 -192 -208 -29 -390 36
-466 167 -23 38 -56 140 -56 171 0 7 24 14 58 18 31 4 78 9 103 12 46 6 47 5
53 -28 9 -51 54 -113 100 -139 52 -30 173 -33 222 -6 67 35 100 104 78 161
-11 29 -71 56 -218 96 -169 47 -227 73 -279 126 -52 54 -71 98 -75 180 -9 159
85 260 276 294 68 13 200 3 275 -20z m-2936 -19 c59 -26 123 -90 149 -148 13
-28 18 -66 18 -143 1 -90 -3 -111 -22 -147 -35 -66 -78 -110 -140 -140 -54
-27 -66 -28 -232 -33 l-175 -5 -3 -192 -2 -193 -105 0 -105 0 0 516 0 516 283
-4 c269 -4 284 -5 334 -27z m545 -333 c4 -406 5 -411 74 -464 35 -27 43 -29
130 -29 104 0 132 12 169 76 19 32 20 55 23 407 l3 372 105 0 105 0 -3 -392
c-4 -385 -4 -394 -27 -452 -13 -32 -38 -75 -56 -95 -78 -85 -231 -125 -406
-103 -113 14 -183 47 -243 113 -77 85 -79 101 -84 542 l-4 387 105 0 105 0 4
-362z m1403 351 c76 -14 124 -39 163 -84 45 -50 62 -98 62 -169 -1 -79 -25
-133 -83 -181 l-46 -39 37 -16 c96 -44 144 -120 144 -233 0 -124 -71 -231
-184 -274 -36 -14 -94 -17 -360 -21 l-318 -4 0 516 0 516 263 0 c148 0 289 -5
322 -11z"/>
<path d="M300 1180 l0 -140 123 0 c140 0 176 12 215 70 32 48 27 118 -13 160
-36 37 -91 50 -219 50 l-106 0 0 -140z"/>
<path d="M2282 1208 l3 -113 150 0 c133 0 154 2 185 21 46 27 65 78 47 132
-20 62 -54 72 -235 72 l-153 0 3 -112z"/>
<path d="M2288 915 c-5 -5 -8 -66 -8 -137 l0 -128 162 0 c142 0 167 2 203 20
48 23 65 53 65 114 0 52 -28 92 -78 113 -38 16 -332 31 -344 18z"/>
</g>
</svg>
